<svg width="98" height="32" viewBox="0 0 98 32" fill="none" xmlns="http://www.w3.org/2000/svg">
<path d="M12.7347 27.7173C6.07869 27.7173 0.666687 22.3053 0.666687 15.6493C0.666687 8.99333 6.07869 3.582 12.7347 3.582V5.50333C7.13735 5.50333 2.58869 10.052 2.58869 15.6493C2.58869 21.2467 7.13735 25.7953 12.7347 25.7953V27.7167V27.7173Z" fill="url(#paint0_linear_1_11573)"/>
<path d="M12.7347 27.7173V25.796C18.332 25.796 22.8807 21.2473 22.8807 15.65H24.802C24.802 22.306 19.39 27.718 12.734 27.718L12.7347 27.7173Z" fill="url(#paint1_linear_1_11573)"/>
<path d="M24.802 15.6493H22.8807C22.8807 10.052 18.332 5.50333 12.7347 5.50333V3.582C19.3907 3.582 24.8027 8.994 24.8027 15.65L24.802 15.6493Z" fill="url(#paint2_linear_1_11573)"/>
<path d="M17.8753 19.3447C16.594 19.094 15.5827 18.6393 13.902 17.878C13.438 17.674 12.9273 17.442 12.3427 17.182C11.99 17.024 11.6653 16.8847 11.34 16.746C8.806 15.6227 7.41333 15.01 5.70533 15.01C4.508 15.01 3.60733 15.3347 3.106 15.9473C2.76267 16.356 2.62333 16.8847 2.72533 17.3953L0.840667 17.7573C0.636667 16.6807 0.914667 15.576 1.62067 14.722C2.23333 13.9793 3.44 13.088 5.70533 13.088C7.822 13.088 9.53 13.8493 12.12 14.9913C12.4353 15.1307 12.7607 15.2793 13.1133 15.4273C13.7073 15.6873 14.2273 15.9193 14.6913 16.1327C16.2973 16.8567 17.1793 17.256 18.2467 17.46L17.8753 19.3447Z" fill="url(#paint3_linear_1_11573)"/>
<path d="M19.7514 19.5293C19.1107 19.5293 18.498 19.4733 17.876 19.344L18.2474 17.4593C18.7487 17.5613 19.2407 17.608 19.7514 17.608C20.9394 17.608 21.84 17.3107 22.36 16.7447C22.88 16.1787 22.8987 15.4913 22.8707 15.1293L24.7827 14.962C24.8847 16.1313 24.532 17.2273 23.78 18.044C23.158 18.7213 21.9607 19.5293 19.7514 19.5293Z" fill="url(#paint4_linear_1_11573)"/>
<path d="M12.7347 27.7173V25.796C15.492 25.796 17.1347 22.9833 17.1347 18.2767C17.1347 13.57 15.464 9.62466 12.0387 5.97666L13.4407 4.65866C17.2187 8.678 19.0567 13.134 19.0567 18.2767C19.0567 24.0973 16.634 27.7173 12.7347 27.7173Z" fill="url(#paint5_linear_1_11573)"/>
<path d="M12.7333 27.7173C8.584 27.7173 6.20734 24.3387 6.20734 18.444C6.20734 11.5653 9.21534 7.722 12.028 4.668L13.4393 5.96733C10.1627 9.532 8.12934 12.8553 8.12934 18.4433C8.12934 24.5233 10.636 25.7953 12.734 25.7953V27.7167L12.7333 27.7173Z" fill="url(#paint6_linear_1_11573)"/>
<path d="M7.59066 16.652C8.83133 16.652 9.83733 15.646 9.83733 14.4053C9.83733 13.1647 8.83133 12.1587 7.59066 12.1587C6.34999 12.1587 5.34399 13.1647 5.34399 14.4053C5.34399 15.646 6.34999 16.652 7.59066 16.652Z" fill="#1D7AFC"/>
<path d="M17.976 20.5233C19.2167 20.5233 20.2227 19.5173 20.2227 18.2767C20.2227 17.036 19.2167 16.03 17.976 16.03C16.7354 16.03 15.7294 17.036 15.7294 18.2767C15.7294 19.5173 16.7354 20.5233 17.976 20.5233Z" fill="#1D7AFC"/>
<path d="M12.7327 7.14667C13.9734 7.14667 14.9794 6.14067 14.9794 4.9C14.9794 3.65933 13.9734 2.65333 12.7327 2.65333C11.492 2.65333 10.486 3.65933 10.486 4.9C10.486 6.14067 11.492 7.14667 12.7327 7.14667Z" fill="#1D7AFC"/>
<path d="M35.3393 20.9793L33.6593 25.5093H30.568L38.4953 5.384H41.986L49.9227 25.5093H46.8313L45.142 20.942C43.332 21.3133 41.772 21.49 40.148 21.49C38.616 21.49 37.0567 21.3047 35.3393 20.97V20.9793ZM44.316 18.6493L40.2407 7.62133L36.1653 18.6773C37.6693 18.9187 38.9227 19.0487 40.148 19.0487C41.438 19.0487 42.7567 18.8907 44.316 18.6493Z" fill="url(#paint7_linear_1_11573)"/>
<path d="M57.0413 23.0307C57.654 23.0307 58.2387 22.91 58.694 22.8173V25.3607C58.23 25.4813 57.71 25.602 56.9207 25.602C53.644 25.602 52.0473 23.6713 52.0473 20.8213V12.6433H49.5687V10.1927H52.0473V6.94333H54.6187V10.1927H58.694V12.6433H54.6187V20.766C54.6187 22.112 55.4167 23.0313 57.0413 23.0313V23.0307Z" fill="url(#paint8_linear_1_11573)"/>
<path d="M65.7107 25.6013C63.1947 25.6013 61.6074 24.404 61.6074 21.5913V3.78667H64.244V21.2853C64.244 22.6687 65.1634 23.1513 66.2954 23.1513C66.574 23.1513 66.7594 23.1513 67.0567 23.1233V25.4813C66.8434 25.546 66.3794 25.602 65.7107 25.602V25.6013Z" fill="url(#paint9_linear_1_11573)"/>
<path d="M91.2574 25.8153C88.9554 25.8153 87.0894 25.2953 85.9287 24.6827V21.898C87.2467 22.6593 89.4561 23.402 91.3781 23.402C93.3001 23.402 94.4414 22.576 94.4414 21.378C94.4414 20.18 93.55 19.54 90.6447 18.8347C87.2474 18.0087 85.8087 16.69 85.8087 14.1747C85.8087 11.5107 87.8601 9.886 91.3507 9.886C93.3467 9.886 95.1474 10.378 96.2801 10.9907V13.72C94.442 12.8007 92.9381 12.3087 91.3134 12.3087C89.3827 12.3087 88.3427 12.986 88.3427 14.1747C88.3427 15.242 89.0761 15.92 91.8981 16.5973C95.2961 17.4233 97.0134 18.6767 97.0134 21.35C97.0134 24.0233 95.3607 25.8247 91.2487 25.8247L91.258 25.8153H91.2574Z" fill="url(#paint10_linear_1_11573)"/>
<path d="M83.4154 23.1513C82.6727 23.1513 82.3387 22.8447 82.3387 21.8613V10.192H79.7021V12.884C78.7827 10.888 77.0654 9.88533 74.8287 9.88533C70.54 9.88533 68.3954 13.5333 68.3954 17.85C68.3954 22.1667 70.484 25.8147 74.624 25.8147C77.2327 25.8147 78.7547 24.682 79.7481 22.6953C79.9801 24.5893 81.1681 25.5913 82.8581 25.5913C83.3967 25.5913 83.7681 25.5447 84.0274 25.4707V23.1127C83.7207 23.1407 83.6934 23.1407 83.4147 23.1407V23.15L83.4154 23.1513ZM79.7021 18.4633C79.7021 21.8607 77.5854 23.3647 75.2274 23.3647C72.4981 23.3647 71.0314 21.5267 71.0314 17.8507C71.0314 14.1747 72.5634 12.3367 75.5334 12.3367C77.7707 12.3367 79.7014 13.8407 79.7014 17.238V18.4633H79.7021Z" fill="url(#paint11_linear_1_11573)"/>
<defs>
<linearGradient id="paint0_linear_1_11573" x1="7.39402" y1="27.9207" x2="6.47469" y2="3.81133" gradientUnits="userSpaceOnUse">
<stop offset="0.5" stop-color="#1D7AFC"/>
<stop offset="1" stop-color="#0055CC"/>
</linearGradient>
<linearGradient id="paint1_linear_1_11573" x1="25.008" y1="16.7093" x2="14.3233" y2="27.756" gradientUnits="userSpaceOnUse">
<stop stop-color="#0055CC"/>
<stop offset="1" stop-color="#0055CC"/>
</linearGradient>
<linearGradient id="paint2_linear_1_11573" x1="18.7687" y1="3.582" x2="18.7687" y2="15.6493" gradientUnits="userSpaceOnUse">
<stop stop-color="#1D7AFC"/>
<stop offset="0.59" stop-color="#1D7AFC"/>
<stop offset="1" stop-color="#0055CC"/>
</linearGradient>
<linearGradient id="paint3_linear_1_11573" x1="0.775334" y1="16.216" x2="18.246" y2="16.216" gradientUnits="userSpaceOnUse">
<stop offset="0.26" stop-color="#1D7AFC"/>
<stop offset="1" stop-color="#0055CC"/>
</linearGradient>
<linearGradient id="paint4_linear_1_11573" x1="19.806" y1="19.0367" x2="23.6214" y2="14.98" gradientUnits="userSpaceOnUse">
<stop stop-color="#0055CC"/>
<stop offset="1" stop-color="#0055CC"/>
</linearGradient>
<linearGradient id="paint5_linear_1_11573" x1="15.5474" y1="27.7173" x2="15.5474" y2="4.65866" gradientUnits="userSpaceOnUse">
<stop offset="0.36" stop-color="#1D7AFC"/>
<stop offset="1" stop-color="#0055CC"/>
</linearGradient>
<linearGradient id="paint6_linear_1_11573" x1="9.82334" y1="27.7173" x2="9.82334" y2="4.668" gradientUnits="userSpaceOnUse">
<stop offset="0.06" stop-color="#1D7AFC"/>
<stop offset="0.58" stop-color="#0055CC"/>
<stop offset="1" stop-color="#1D7AFC"/>
</linearGradient>
<linearGradient id="paint7_linear_1_11573" x1="96.3653" y1="-2.19133" x2="29.8807" y2="20.292" gradientUnits="userSpaceOnUse">
<stop stop-color="#0055CC"/>
<stop offset="1" stop-color="#1D7AFC"/>
</linearGradient>
<linearGradient id="paint8_linear_1_11573" x1="97.7287" y1="1.82733" x2="31.244" y2="24.3107" gradientUnits="userSpaceOnUse">
<stop stop-color="#0055CC"/>
<stop offset="1" stop-color="#1D7AFC"/>
</linearGradient>
<linearGradient id="paint9_linear_1_11573" x1="98.1833" y1="3.186" x2="31.6994" y2="25.6693" gradientUnits="userSpaceOnUse">
<stop stop-color="#0055CC"/>
<stop offset="1" stop-color="#1D7AFC"/>
</linearGradient>
<linearGradient id="paint10_linear_1_11573" x1="101.947" y1="14.2893" x2="35.462" y2="36.7814" gradientUnits="userSpaceOnUse">
<stop stop-color="#0055CC"/>
<stop offset="1" stop-color="#1D7AFC"/>
</linearGradient>
<linearGradient id="paint11_linear_1_11573" x1="100.607" y1="10.3293" x2="34.1227" y2="32.8127" gradientUnits="userSpaceOnUse">
<stop stop-color="#0055CC"/>
<stop offset="1" stop-color="#1D7AFC"/>
</linearGradient>
</defs>
</svg>
